# xmcd CD database file
#
# Track frame offsets:
#	150
#	12630
#	26572
#	42915
#	54832
#	64050
#	83202
#	98517
#	110420
#	122785
#	141140
#	167952
#	187365
#	212312
#	236800
#	249987
#
# Disc length: 3682 seconds
#
# Revision: 1
# Processed by: cddbd v1.5PL3 Copyright (c) Steve Scherf et al.
# Submitted via: CDex 1.51
#
DISCID=db0e6010
DTITLE=The Blues Band - The Best of the Blues Band
DYEAR=1999
DGENRE=Blues
TTITLE0=Diddy Wah Diddy  (1980 - Official Blues Band Bootleg Album)
TTITLE1=Death Letter  (1980 - Official Blues Band Bootleg Album)
TTITLE2=Lonely Avenue  (1980 - Ready)
TTITLE3=Find Yourself Another Fool  (1980 - Ready)
TTITLE4=Hey, Hey, Little Girl   (1980 - Ready)
TTITLE5=Maggie´s Farm   (1980 - Maggie's Farm EP)
TTITLE6=I can't be Satisfied  (1981 - Itchy Feet)
TTITLE7=I want to be Loved  (1982 - Brand Loyalty)
TTITLE8=Bad Penny Blues  (1986 - These Kind of Blues)
TTITLE9=Victim of Love  (1989 - Back For More)
TTITLE10=Blue Collar  (1989 - Back For More)
TTITLE11=Bad Boy  (1989 - Back For More)
TTITLE12=Leaving  (1989 - Back For More)
TTITLE13=Fat City  (1991 - Fat City)
TTITLE14=Country Blues No. 18  (1991 - Fat City)
TTITLE15=Down to the River  (1991 - Fat City)
EXTD=YEAR: 1999
EXTT0=
EXTT1=
EXTT2=
EXTT3=
EXTT4=
EXTT5=
EXTT6=
EXTT7=
EXTT8=
EXTT9=
EXTT10=
EXTT11=
EXTT12=
EXTT13=
EXTT14=
EXTT15=
PLAYORDER=
